<svg width="21" height="21" viewBox="0 0 21 21" fill="none" xmlns="http://www.w3.org/2000/svg">
<path fill-rule="evenodd" clip-rule="evenodd" d="M5.5 0.5C2.73858 0.5 0.5 2.73858 0.5 5.5V15.5C0.5 18.2614 2.73858 20.5 5.5 20.5H15.5C18.2614 20.5 20.5 18.2614 20.5 15.5V5.5C20.5 2.73858 18.2614 0.5 15.5 0.5H5.5ZM16.5 5.5C17.0523 5.5 17.5 5.05228 17.5 4.5C17.5 3.94772 17.0523 3.5 16.5 3.5C15.9477 3.5 15.5 3.94772 15.5 4.5C15.5 5.05228 15.9477 5.5 16.5 5.5ZM15.5 10.5C15.5 13.2614 13.2614 15.5 10.5 15.5C7.73858 15.5 5.5 13.2614 5.5 10.5C5.5 7.73858 7.73858 5.5 10.5 5.5C13.2614 5.5 15.5 7.73858 15.5 10.5ZM10.5 13.5C12.1569 13.5 13.5 12.1569 13.5 10.5C13.5 8.84315 12.1569 7.5 10.5 7.5C8.84315 7.5 7.5 8.84315 7.5 10.5C7.5 12.1569 8.84315 13.5 10.5 13.5Z" fill="white"/>
</svg>
