<svg width="20" height="21" viewBox="0 0 20 21" fill="none" xmlns="http://www.w3.org/2000/svg">
<path fill-rule="evenodd" clip-rule="evenodd" d="M4.5 2.5C4.5 3.60457 3.60457 4.5 2.5 4.5C1.39543 4.5 0.5 3.60457 0.5 2.5C0.5 1.39543 1.39543 0.5 2.5 0.5C3.60457 0.5 4.5 1.39543 4.5 2.5ZM4.5 7V20.5H0.5V7H4.5ZM7.5 7H11.5V7.84141C12.1256 7.62031 12.7987 7.5 13.5 7.5C16.8137 7.5 19.5 10.1863 19.5 13.5V20.5H15.5V13.5C15.5 12.3954 14.6046 11.5 13.5 11.5C12.3954 11.5 11.5 12.3954 11.5 13.5V20.5H7.5V13.5V7Z" fill="white"/>
</svg>
