<svg width="48" height="49" viewBox="0 0 48 49" fill="none" xmlns="http://www.w3.org/2000/svg">
<rect width="48" height="48" rx="24" transform="matrix(-1 0 0 1 48 0.5)" fill="#CCBB8E"/>
<path d="M27.5695 31.904C21.289 31.904 16.1976 26.8126 16.1976 20.5321C16.1976 14.2515 21.289 9.16016 27.5695 9.16016C33.85 9.16016 38.9414 14.2515 38.9414 20.5321C38.9414 26.8126 33.85 31.904 27.5695 31.904Z" fill="#EDEBDC"/>
<path d="M33.1234 12.3332C32.8313 12.3332 32.5945 12.0964 32.5945 11.8043C32.5945 11.5122 32.8313 11.2754 33.1234 11.2754C33.4155 11.2754 33.6523 11.5122 33.6523 11.8043C33.6523 12.0964 33.4155 12.3332 33.1234 12.3332Z" fill="#4C241D"/>
<path d="M38.3889 15.0371C38.5241 15.0371 38.6595 14.9854 38.7628 14.8821C38.9694 14.6757 38.9694 14.3408 38.7628 14.1342L37.2037 12.5748C36.9971 12.3683 36.6623 12.3683 36.4558 12.5748C36.2492 12.7812 36.2492 13.1162 36.4558 13.3227L38.0149 14.8821C38.1183 14.9855 38.2536 15.0371 38.3889 15.0371Z" fill="#4C241D"/>
<path d="M36.8298 15.0371C36.9651 15.0371 37.1005 14.9854 37.2038 14.8821L38.7631 13.3227C38.9696 13.1162 38.9696 12.7811 38.7631 12.5748C38.5565 12.3683 38.2217 12.3683 38.0152 12.5748L36.456 14.1342C36.2495 14.3408 36.2495 14.6759 36.456 14.8821C36.5593 14.9855 36.6946 15.0371 36.8298 15.0371Z" fill="#4C241D"/>
<path d="M36.8253 36.1345C37.7003 36.1345 38.4121 35.4227 38.4121 34.5477C38.4121 33.6727 37.7003 32.9609 36.8253 32.9609C35.9504 32.9609 35.2386 33.6727 35.2386 34.5477C35.2386 35.4227 35.9504 36.1345 36.8253 36.1345ZM36.8253 34.0188C37.1169 34.0188 37.3543 34.2561 37.3543 34.5477C37.3543 34.8393 37.1169 35.0766 36.8253 35.0766C36.5338 35.0766 36.2964 34.8393 36.2964 34.5477C36.2964 34.2561 36.5338 34.0188 36.8253 34.0188Z" fill="#4C241D"/>
<path d="M20.414 39.2706C20.1771 37.648 19.7864 35.184 19.322 35.0412C18.8008 34.8808 13.2122 36.6851 13.1525 35.2817C13.0929 33.8784 11.8889 32.5953 11.6484 32.2345C11.4079 31.8736 12.2097 31.232 12.2097 31.232C12.2097 31.232 11.3276 31.1519 11.369 30.6306C11.4102 30.1094 11.369 29.1872 11.369 29.1872C11.369 29.1872 10.0045 29.0669 9.6837 28.9065C9.36291 28.7461 9.8441 27.3828 10.8775 25.8993C11.9109 24.4158 11.0548 23.5426 11.1484 20.7426C11.1884 19.549 11.6423 18.5427 12.0908 17.7132C12.7074 16.5729 13.6666 15.659 14.7915 15.0146C17.6949 13.3514 26.1554 10.5668 29.4772 15.5169C32.7092 20.3334 31.5368 25.5565 29.4887 27.9272C27.3818 30.3656 28.0509 32.4954 28.8922 35.6061C29.0675 36.2547 29.6665 38.0434 30.1039 39.0907" fill="#FFDED5"/>
<path d="M20.4137 39.7991C20.4392 39.7991 20.4651 39.7972 20.4909 39.7934C20.78 39.7513 20.98 39.4826 20.9377 39.1937C20.3868 35.4227 20.0424 34.709 19.478 34.5353C19.2014 34.4503 18.813 34.5258 17.6278 34.7771C16.6751 34.979 14.179 35.5082 13.679 35.213C13.6034 33.8907 12.694 32.7236 12.2545 32.1593C12.2211 32.1167 12.191 32.0782 12.1646 32.0438C12.2356 31.9335 12.3933 31.7636 12.5417 31.6441C12.7093 31.5088 12.7785 31.2848 12.716 31.0788C12.6537 30.8724 12.4727 30.7244 12.2583 30.7049C12.1343 30.6924 11.9778 30.6469 11.9014 30.6041C11.9368 30.0516 11.8993 29.2005 11.8978 29.163C11.8859 28.8983 11.6799 28.6832 11.4159 28.6599C10.9722 28.6206 10.4433 28.5523 10.1374 28.49C10.2274 28.0995 10.585 27.2449 11.3121 26.2009C12.0711 25.1113 11.9608 24.251 11.8211 23.162C11.738 22.5125 11.6434 21.7762 11.6775 20.7599C11.7142 19.6612 12.1425 18.7301 12.5564 17.9644C13.0994 16.9597 13.9634 16.0982 15.0549 15.4731C17.708 13.953 25.951 11.2097 29.0383 15.8112C32.293 20.6615 30.7966 25.6044 29.0887 27.5809C26.8656 30.1545 27.4996 32.491 28.3023 35.4495L28.3822 35.7439C28.5619 36.4081 29.1728 38.232 29.6165 39.2941C29.7291 39.5637 30.0387 39.691 30.3083 39.5784C30.5779 39.4657 30.7052 39.1559 30.5926 38.8865C30.1642 37.861 29.5759 36.1056 29.4033 35.4677L29.3233 35.1726C28.5191 32.2093 28.0338 30.4204 29.8894 28.2727C32.2863 25.4985 33.1107 19.9817 29.917 15.2221C26.4785 10.0977 17.9097 12.6186 14.5291 14.5556C13.2667 15.2787 12.2628 16.2836 11.626 17.4616C11.181 18.2848 10.6645 19.3993 10.6204 20.7251C10.5837 21.8263 10.6881 22.6417 10.7722 23.2969C10.9039 24.3252 10.97 24.8416 10.4442 25.5968C9.70016 26.6652 8.89831 28.1753 9.08673 28.9155C9.14016 29.125 9.26829 29.2897 9.44773 29.3796C9.71814 29.5146 10.3579 29.61 10.8551 29.6668C10.861 29.9597 10.8626 30.3318 10.8421 30.5889C10.8114 30.9774 10.9947 31.2687 11.2799 31.4647C11.077 31.7806 10.9659 32.1632 11.2089 32.5279C11.2536 32.5951 11.3273 32.6906 11.4202 32.81C11.7973 33.2939 12.5821 34.3014 12.6247 35.3043C12.6369 35.5928 12.7702 35.85 13 36.0282C13.7619 36.6186 15.5666 36.296 17.8473 35.8123C18.296 35.7172 18.8347 35.6031 19.1014 35.5695C19.2478 35.8565 19.5097 36.7347 19.8915 39.3471C19.9294 39.6097 20.1554 39.7991 20.4137 39.7991Z" fill="#4C241D"/>
<path d="M19.8998 24.4986L18.3131 19.2094L17.2552 22.3829L10.3792 21.854C10.3792 21.854 9.32131 13.3912 19.3709 11.8044C29.4205 10.2177 33.6519 16.0358 32.594 22.9119C31.5362 29.7879 31.5362 39.3086 31.5362 39.3086H24.6602L23.6023 25.0162C23.6023 23.4589 21.7195 22.679 20.6182 23.7802L19.8998 24.4986Z" fill="#6B4F5B"/>
<path d="M24.6601 39.8371H31.5361C31.8282 39.8371 32.0651 39.6003 32.0651 39.3082C32.0651 39.2134 32.0775 29.748 33.1167 22.9918C33.6844 19.3025 32.7897 16.0683 30.5976 13.8849C28.8626 12.1569 25.4922 10.3019 19.2885 11.2815C10.939 12.6 9.46646 18.8163 9.85429 21.9191C9.8855 22.1686 10.0878 22.3616 10.3385 22.3809L17.2146 22.9098C17.4576 22.9284 17.6801 22.7799 17.757 22.5497L18.2864 20.9611L19.3931 24.6498C19.4465 24.8283 19.5898 24.9655 19.7705 25.0108C19.951 25.0566 20.1419 25.0038 20.2739 24.8718L20.9924 24.1533C21.4173 23.7282 21.9576 23.7382 22.3209 23.8891C22.6848 24.0397 23.0735 24.4147 23.0735 25.0154L24.1329 39.3468C24.1531 39.6236 24.3832 39.8371 24.6601 39.8371ZM31.0104 38.7793H25.1514L24.1296 24.9768C24.1312 24.0773 23.5926 23.2713 22.7257 22.9123C21.8581 22.5528 20.9075 22.7424 20.2442 23.4058L20.1518 23.4979L18.8197 19.0571C18.7533 18.836 18.5517 18.6837 18.3211 18.68C18.0907 18.6704 17.884 18.823 17.8113 19.0415L16.8841 21.8232L10.8749 21.3612C10.8185 19.6739 11.2052 13.6287 19.4534 12.3264C24.0177 11.6056 27.6119 12.4039 29.8514 14.6342C31.798 16.573 32.5865 19.4839 32.0714 22.831C31.1619 28.7416 31.0297 36.676 31.0104 38.7793Z" fill="#4C241D"/>
<path d="M11.834 25.0786C11.8595 25.0786 11.8851 25.0767 11.9109 25.0731L12.8967 24.9295C13.1858 24.8875 13.3861 24.6188 13.344 24.3299C13.302 24.0404 13.0316 23.8405 12.7444 23.8825L11.7586 24.0261C11.4695 24.0682 11.2692 24.3369 11.3112 24.6258C11.3497 24.889 11.5757 25.0786 11.834 25.0786Z" fill="#4C241D"/>
<path d="M21.9354 23.7996C21.9354 23.7996 23.3084 22.3405 24.1015 23.5011C24.6099 24.2453 24.8382 25.4901 24.1015 26.1532C23.3648 26.8162 22.7496 27.0339 22.3812 27.3655C22.0128 27.697 21.1547 27.4792 21.1547 26.8162" fill="#FFDED5"/>
<path d="M21.934 28.0477C22.2346 28.0477 22.5231 27.9485 22.7344 27.7582C22.8496 27.6549 23.0257 27.5482 23.2298 27.425C23.5666 27.2215 23.9857 26.9681 24.4548 26.5459C25.407 25.6892 25.2081 24.1839 24.5377 23.2024C24.1865 22.6879 23.7473 22.5516 23.4413 22.5278C22.5018 22.4541 21.6448 23.3359 21.5498 23.4369C21.3496 23.6494 21.3599 23.9842 21.5728 24.1845C21.7849 24.3842 22.1188 24.3747 22.3194 24.1626C22.5107 23.9615 23.0174 23.5518 23.3599 23.5825C23.4368 23.5887 23.5412 23.6188 23.6641 23.7989C24.0251 24.3273 24.2548 25.3028 23.7471 25.7597C23.3527 26.1146 22.9965 26.3297 22.6825 26.5195C22.443 26.6644 22.2166 26.801 22.027 26.9717C22.0017 26.9903 21.8844 27.0063 21.7767 26.9519C21.6829 26.9039 21.6829 26.8489 21.6829 26.8158C21.6829 26.5237 21.4461 26.2869 21.154 26.2869C20.8619 26.2869 20.6251 26.5237 20.6251 26.8158C20.6251 27.3052 20.9001 27.72 21.3611 27.9254C21.5461 28.0076 21.7426 28.0477 21.934 28.0477Z" fill="#4C241D"/>
<path d="M22.0164 26.0867C22.1517 26.0867 22.2871 26.035 22.3904 25.9317L22.9193 25.4028C23.1259 25.1963 23.1259 24.8615 22.9193 24.6549C22.7128 24.4484 22.378 24.4484 22.1714 24.6549L21.6425 25.1838C21.4359 25.3904 21.4359 25.7252 21.6425 25.9317C21.7458 26.035 21.8812 26.0867 22.0164 26.0867Z" fill="#4C241D"/>
<path d="M29.9496 39.8371C30.2417 39.8371 30.4785 39.6002 30.4785 39.3081V30.8453C30.4785 30.5532 30.2417 30.3164 29.9496 30.3164C29.6575 30.3164 29.4207 30.5532 29.4207 30.8453V39.3081C29.4207 39.6002 29.6575 39.8371 29.9496 39.8371Z" fill="#4C241D"/>
<path d="M27.8344 39.8372C28.1265 39.8372 28.3633 39.6003 28.3633 39.3082V28.2008C28.3633 27.9087 28.1265 27.6719 27.8344 27.6719C27.5423 27.6719 27.3054 27.9087 27.3054 28.2008V39.3082C27.3054 39.6003 27.5423 39.8372 27.8344 39.8372Z" fill="#4C241D"/>
<path d="M20.9581 30.8474C20.0818 30.8474 19.3714 30.137 19.3714 29.2606C19.3714 28.3843 20.0818 27.6738 20.9581 27.6738C21.8345 27.6738 22.5449 28.3843 22.5449 29.2606C22.5449 30.137 21.8345 30.8474 20.9581 30.8474Z" fill="#FFCE56"/>
<path d="M20.9585 31.3759C22.1251 31.3759 23.0742 30.4268 23.0742 29.2602C23.0742 28.0937 22.1251 27.1445 20.9585 27.1445C19.792 27.1445 18.8428 28.0937 18.8428 29.2602C18.8428 30.4268 19.792 31.3759 20.9585 31.3759ZM20.9585 28.2024C21.5419 28.2024 22.0164 28.6768 22.0164 29.2602C22.0164 29.8436 21.5419 30.3181 20.9585 30.3181C20.3751 30.3181 19.9007 29.8436 19.9007 29.2602C19.9007 28.6768 20.3751 28.2024 20.9585 28.2024Z" fill="#4C241D"/>
</svg>
